<?xml version="1.0" encoding="utf-8"?>
<svg viewBox="0 0 500 500" xmlns="http://www.w3.org/2000/svg">
  <g data-name="Layer 2" transform="matrix(18.323223114013672, 0, 0, 18.323223114013672, 7.454486958004338, 30.12132308067863)">
    <g data-name="code">
      <rect width="24" height="24" transform="rotate(90 12 12)" opacity="0"/>
      <path d="M8.64 5.23a1 1 0 0 0-1.41.13l-5 6a1 1 0 0 0 0 1.27l4.83 6a1 1 0 0 0 .78.37 1 1 0 0 0 .78-1.63L4.29 12l4.48-5.36a1 1 0 0 0-.13-1.41z"/>
      <path d="M21.78 11.37l-4.78-6a1 1 0 0 0-1.41-.15 1 1 0 0 0-.15 1.41L19.71 12l-4.48 5.37a1 1 0 0 0 .13 1.41A1 1 0 0 0 16 19a1 1 0 0 0 .77-.36l5-6a1 1 0 0 0 .01-1.27z"/>
    </g>
  </g>
  <g data-name="Layer 2" transform="matrix(6.25, 0, 0, 6.25, 342.54550681331017, 300.8625838289049)">
    <g data-name="checkmark-circle-2">
      <rect width="24" height="24" opacity="0"/>
      <path d="M12 2a10 10 0 1 0 10 10A10 10 0 0 0 12 2zm4.3 7.61l-4.57 6a1 1 0 0 1-.79.39 1 1 0 0 1-.79-.38l-2.44-3.11a1 1 0 0 1 1.58-1.23l1.63 2.08 3.78-5a1 1 0 1 1 1.6 1.22z"/>
    </g>
  </g>
</svg>