<?xml version="1.0" encoding="utf-8"?>
<svg viewBox="0 0 500 500" xmlns="http://www.w3.org/2000/svg">
  <g data-name="Layer 2" transform="matrix(20.83333396911621, 0, 0, 20.83333396911621, -0.00014800000866443952, 0.000035000005098595466)">
    <g data-name="menu-arrow">
      <rect width="24" height="24" transform="rotate(180 12 12)" opacity="0"/>
      <path d="M17 9A5 5 0 0 0 7 9a1 1 0 0 0 2 0 3 3 0 1 1 3 3 1 1 0 0 0-1 1v2a1 1 0 0 0 2 0v-1.1A5 5 0 0 0 17 9z"/>
      <circle cx="12" cy="19" r="1"/>
    </g>
  </g>
  <g data-name="Layer 2" transform="matrix(5.625, 0, 0, 5.625, 303.9372909059716, 309.53125461237505)">
    <g data-name="checkmark-circle-2">
      <rect width="24" height="24" opacity="0"/>
      <path d="M12 2a10 10 0 1 0 10 10A10 10 0 0 0 12 2zm4.3 7.61l-4.57 6a1 1 0 0 1-.79.39 1 1 0 0 1-.79-.38l-2.44-3.11a1 1 0 0 1 1.58-1.23l1.63 2.08 3.78-5a1 1 0 1 1 1.6 1.22z"/>
    </g>
  </g>
</svg>