<?xml version="1.0" encoding="utf-8"?>
<svg viewBox="12.868 4.171 500 500" style=""
  xmlns="http://www.w3.org/2000/svg">
  <g id="Edit / Text_Align_Left" transform="matrix(22.331317901611325, 0, 0, 22.331317901611325, -32.61899615256493, -27.269169260102103)">
    <path id="Vector" d="M 4 18 L 14 18 M 4 14 L 15.83 14 M 4 10 L 14 10 M 4 6 L 20 6" stroke="#000000" stroke-width="2" stroke-linecap="round" stroke-linejoin="round"/>
  </g>
  <g data-name="Layer 2" transform="matrix(8.374244689941404, 0, 0, 8.374244689941404, 309.29016574159505, 270.73688147570005)">
    <g data-name="checkmark-circle-2">
      <rect width="24" height="24" opacity="0"/>
      <path d="M12 2a10 10 0 1 0 10 10A10 10 0 0 0 12 2zm4.3 7.61l-4.57 6a1 1 0 0 1-.79.39 1 1 0 0 1-.79-.38l-2.44-3.11a1 1 0 0 1 1.58-1.23l1.63 2.08 3.78-5a1 1 0 1 1 1.6 1.22z"/>
    </g>
  </g>
</svg>