<?xml version="1.0" encoding="utf-8"?>
<svg viewBox="0 0 500 500" xmlns="http://www.w3.org/2000/svg">
  <g data-name="Layer 2" transform="matrix(18.644758224487305, 0, 0, 18.644758224487305, -0.0001360000044314802, 3.4106669934193405)">
    <g data-name="video">
      <rect width="24" height="24" opacity="0"/>
      <path d="M21 7.15a1.7 1.7 0 0 0-1.85.3l-2.15 2V8a3 3 0 0 0-3-3H5a3 3 0 0 0-3 3v8a3 3 0 0 0 3 3h9a3 3 0 0 0 3-3v-1.45l2.16 2a1.74 1.74 0 0 0 1.16.45 1.68 1.68 0 0 0 .69-.15 1.6 1.6 0 0 0 1-1.48V8.63A1.6 1.6 0 0 0 21 7.15z"/>
    </g>
  </g>
  <g data-name="Layer 2" transform="matrix(6.250000000000001, 0, 0, 6.250000000000001, 332.1970874696535, 328.78647340515954)">
    <g data-name="checkmark-circle-2">
      <rect width="24" height="24" opacity="0"/>
      <path d="M12 2a10 10 0 1 0 10 10A10 10 0 0 0 12 2zm4.3 7.61l-4.57 6a1 1 0 0 1-.79.39 1 1 0 0 1-.79-.38l-2.44-3.11a1 1 0 0 1 1.58-1.23l1.63 2.08 3.78-5a1 1 0 1 1 1.6 1.22z"/>
    </g>
  </g>
</svg>